<svg width="23" height="23" viewBox="0 0 23 23" fill="none" xmlns="http://www.w3.org/2000/svg">
<path fill-rule="evenodd" clip-rule="evenodd" d="M10.0965 3.83225C10.0923 2.3938 8.41291 1.91602 6.7057 1.91602L4.30988 6.27645L1.91406 7.66566V13.416L8.99824 14.652C9.22106 14.6807 9.42913 14.6938 9.62373 14.6938C11.649 14.6938 12.2101 13.2574 12.4337 12.6848C12.8692 11.5673 13.231 9.54878 13.3659 8.77824L13.3672 8.77383C13.5116 7.9125 13.3196 7.12821 12.8271 6.56507C12.5199 6.21405 12.1086 5.96204 11.6325 5.83738C11.4109 5.77934 11.1752 5.74888 10.9293 5.74888H9.67773C9.67773 5.74888 9.87265 4.97758 10.0194 4.40599C10.0723 4.19966 10.097 4.0087 10.0965 3.83225ZM11.3847 7.82724C11.3272 7.76161 11.1958 7.66552 10.9293 7.66552H7.21646C7.29552 7.35257 7.37451 7.03958 7.45342 6.72656L7.45396 6.72445L7.45401 6.72436C7.68041 5.8266 7.90687 4.92879 8.1366 4.03184L7.78526 3.93144L5.73278 7.66687L3.8307 8.76979V11.8047L9.28102 12.7557C9.41116 12.771 9.52486 12.7771 9.62373 12.7771C9.89848 12.7771 10.0575 12.7295 10.1418 12.694C10.2256 12.6587 10.2844 12.6147 10.3345 12.5634C10.4582 12.4369 10.5394 12.2665 10.6481 11.9882C10.9995 11.0865 11.3322 9.28055 11.4779 8.44775L11.4822 8.42349C11.5377 8.04794 11.4325 7.88209 11.3847 7.82724ZM10.1677 16.4337C9.96851 16.2059 9.81843 15.9419 9.71991 15.6513C10.4832 15.637 11.107 15.4538 11.6104 15.1717C11.668 15.2374 11.7994 15.3332 12.0655 15.3332H15.7783L15.1752 17.72L15.1748 17.7217L15.1731 17.7284L15.1666 17.754L15.1424 17.8497L15.0591 18.1784C14.9924 18.4413 14.9254 18.7041 14.8582 18.9669C14.9436 18.9997 15.0591 19.0352 15.2095 19.0673L17.0051 15.7993L17.262 15.3318L17.7235 15.0642L19.1641 14.2289V11.194L14.055 10.3026C14.1648 9.76337 14.249 9.2907 14.3006 8.99683L14.3028 8.9891L14.3123 8.93245C14.3414 8.7601 14.36 8.58614 14.3679 8.41154L21.0807 9.58279V15.3331L18.6849 16.7223L16.2891 21.0827C14.5819 21.0827 12.9025 20.605 12.8983 19.1665C12.8978 18.9901 12.9225 18.7991 12.9754 18.5928C13.1222 18.0211 13.3171 17.2499 13.3171 17.2499H12.0655C11.8197 17.2499 11.5839 17.2194 11.3623 17.1614C10.8862 17.0367 10.475 16.7847 10.1677 16.4337Z" fill="#464646"/>
</svg>
