<svg width="24" height="24" viewBox="0 0 24 24" fill="none" xmlns="http://www.w3.org/2000/svg">
<g clip-path="url(#clip0_12689_9989)">
<path d="M15.4915 7.5H15.4995M18.4915 7.5H18.4995M21.9995 7.283C21.9995 9.925 19.7605 12.067 16.9995 12.067C16.6742 12.067 16.3518 12.037 16.0325 11.977C15.8025 11.934 15.6875 11.913 15.6075 11.925C15.5275 11.937 15.4135 11.997 15.1875 12.118C14.5404 12.4629 13.7958 12.5788 13.0745 12.447C13.3502 12.1063 13.5371 11.7026 13.6185 11.272C13.6685 11.007 13.5445 10.75 13.3585 10.562C12.4907 9.69108 12.0022 8.51248 11.9995 7.283C11.9995 4.642 14.2385 2.5 16.9995 2.5C19.7605 2.5 21.9995 4.642 21.9995 7.283ZM7.5015 21.5H4.7175C4.3945 21.5 4.0695 21.454 3.7725 21.327C2.8065 20.912 2.3155 20.363 2.0875 20.02C2.02563 19.925 1.99522 19.8129 2.00061 19.6997C2.00599 19.5864 2.04689 19.4777 2.1175 19.389C3.2375 17.901 5.8375 17.003 7.50651 17.003C9.1745 17.003 11.7705 17.901 12.8905 19.389C13.0315 19.576 13.0505 19.825 12.9205 20.02C12.6915 20.363 12.2005 20.912 11.2345 21.327C10.9344 21.4478 10.6129 21.5066 10.2895 21.5H7.5015ZM10.2855 11.789C10.285 12.1535 10.2127 12.5144 10.0727 12.851C9.93267 13.1876 9.72775 13.4934 9.46961 13.7508C9.21146 14.0082 8.90514 14.2122 8.56814 14.3512C8.23114 14.4902 7.87005 14.5615 7.50551 14.561C6.76961 14.5615 6.06362 14.2698 5.5427 13.7501C5.02178 13.2303 4.72857 12.5249 4.7275 11.789C4.7279 11.4244 4.80009 11.0635 4.93996 10.7269C5.07983 10.3902 5.28464 10.0844 5.5427 9.82695C5.80075 9.56945 6.107 9.3653 6.44395 9.22616C6.7809 9.08702 7.14196 9.01561 7.50651 9.016C7.87105 9.01561 8.23211 9.08702 8.56906 9.22616C8.90601 9.3653 9.21226 9.56945 9.47031 9.82695C9.72837 10.0844 9.93318 10.3902 10.073 10.7269C10.2129 11.0635 10.2851 11.4244 10.2855 11.789Z" stroke="#464646" stroke-width="1.5" stroke-linecap="round" stroke-linejoin="round"/>
<path d="M15.4915 7.5H15.4995M18.4915 7.5H18.4995M21.9995 7.283C21.9995 9.925 19.7605 12.067 16.9995 12.067C16.6742 12.067 16.3518 12.037 16.0325 11.977C15.8025 11.934 15.6875 11.913 15.6075 11.925C15.5275 11.937 15.4135 11.997 15.1875 12.118C14.5404 12.4629 13.7958 12.5788 13.0745 12.447C13.3502 12.1063 13.5371 11.7026 13.6185 11.272C13.6685 11.007 13.5445 10.75 13.3585 10.562C12.4907 9.69108 12.0022 8.51248 11.9995 7.283C11.9995 4.642 14.2385 2.5 16.9995 2.5C19.7605 2.5 21.9995 4.642 21.9995 7.283ZM7.5015 21.5H4.7175C4.3945 21.5 4.0695 21.454 3.7725 21.327C2.8065 20.912 2.3155 20.363 2.0875 20.02C2.02563 19.925 1.99522 19.8129 2.00061 19.6997C2.00599 19.5864 2.04689 19.4777 2.1175 19.389C3.2375 17.901 5.8375 17.003 7.50651 17.003C9.1745 17.003 11.7705 17.901 12.8905 19.389C13.0315 19.576 13.0505 19.825 12.9205 20.02C12.6915 20.363 12.2005 20.912 11.2345 21.327C10.9344 21.4478 10.6129 21.5066 10.2895 21.5H7.5015ZM10.2855 11.789C10.285 12.1535 10.2127 12.5144 10.0727 12.851C9.93267 13.1876 9.72775 13.4934 9.46961 13.7508C9.21146 14.0082 8.90514 14.2122 8.56814 14.3512C8.23114 14.4902 7.87005 14.5615 7.50551 14.561C6.76961 14.5615 6.06362 14.2698 5.5427 13.7501C5.02178 13.2303 4.72857 12.5249 4.7275 11.789C4.7279 11.4244 4.80009 11.0635 4.93996 10.7269C5.07983 10.3902 5.28464 10.0844 5.5427 9.82695C5.80075 9.56945 6.107 9.3653 6.44395 9.22616C6.7809 9.08702 7.14196 9.01561 7.50651 9.016C7.87105 9.01561 8.23211 9.08702 8.56906 9.22616C8.90601 9.3653 9.21226 9.56945 9.47031 9.82695C9.72837 10.0844 9.93318 10.3902 10.073 10.7269C10.2129 11.0635 10.2851 11.4244 10.2855 11.789Z" stroke="#464646" stroke-width="1.5" stroke-linecap="round" stroke-linejoin="round"/>
</g>
<defs>
<clipPath id="clip0_12689_9989">
<rect width="24" height="24" fill="white"/>
</clipPath>
</defs>
</svg>
